<svg xmlns="http://www.w3.org/2000/svg" xmlns:xlink="http://www.w3.org/1999/xlink" preserveAspectRatio="xMidYMid" width="21" height="17" viewBox="0 0 21 17">
  <defs>
    <style>
      .cls-1 {
        fill: #3e4d5c;
        fill-rule: evenodd;
      }
    </style>
  </defs>
  <path d="M18.453,11.101 L20.933,3.682 C21.058,3.326 20.964,3.111 20.864,2.970 C20.606,2.607 20.078,2.604 19.975,2.604 L5.956,2.601 L5.582,0.828 C5.481,0.409 5.182,0.010 4.580,0.010 L0.641,0.010 C0.233,0.010 0.010,0.201 0.010,0.582 L0.010,1.606 C0.010,1.975 0.231,2.071 0.655,2.071 L3.981,2.071 L6.527,12.872 C6.123,13.300 5.903,13.924 5.903,14.506 C5.903,15.787 6.924,16.968 8.227,16.968 C9.458,16.968 10.381,15.816 10.531,15.128 L15.489,15.128 C15.639,15.816 16.386,16.995 17.792,16.995 C19.073,16.995 20.115,15.886 20.115,14.608 C20.115,13.336 19.341,12.208 17.804,12.208 C17.166,12.208 16.408,12.551 16.056,13.067 L9.963,13.067 C9.521,12.380 8.917,12.167 8.306,12.143 L8.223,11.692 L17.493,11.692 C18.191,11.692 18.329,11.438 18.453,11.101 L18.453,11.101 ZM7.325,14.579 C7.325,14.092 7.721,13.696 8.209,13.696 C8.695,13.696 9.091,14.092 9.091,14.579 C9.091,15.067 8.695,15.463 8.209,15.463 C7.721,15.462 7.325,15.067 7.325,14.579 ZM17.810,15.451 C17.328,15.451 16.936,15.061 16.936,14.579 C16.936,14.098 17.328,13.706 17.810,13.706 C18.292,13.706 18.683,14.098 18.683,14.579 C18.683,15.061 18.291,15.451 17.810,15.451 Z" class="cls-1"/>
</svg>
